<?xml version="1.0" encoding="utf-8"?>
<!-- Generator: Adobe Illustrator 21.1.0, SVG Export Plug-In . SVG Version: 6.00 Build 0)  -->
<svg version="1.1" id="Layer_1" xmlns="http://www.w3.org/2000/svg" xmlns:xlink="http://www.w3.org/1999/xlink" x="0px" y="0px"
	 viewBox="0 0 38.7 14.9" style="enable-background:new 0 0 38.7 14.9;" xml:space="preserve">
<style type="text/css">
	.st0{opacity:0.52;}
	.st1{fill:#FFFFFF;}
</style>
<g class="st0">
	<path class="st1" d="M17.1,4.6c-0.1,0.1-0.4,0.1-0.5,0c-0.1-0.1-0.1-0.4,0-0.5c0.1-0.1,0.4-0.1,0.5,0C17.2,4.2,17.2,4.4,17.1,4.6z"
		/>
	<path class="st1" d="M13.2,3.2c0.3-0.3,0.7-0.3,1,0c0.3,0.3,0.3,0.8,0,1.1c-0.3,0.3-0.8,0.3-1,0C12.9,4,12.9,3.5,13.2,3.2z M14,4.1
		c0.2-0.2,0.2-0.5,0-0.7c-0.2-0.2-0.5-0.2-0.7,0c-0.2,0.2-0.2,0.5,0,0.7C13.5,4.3,13.8,4.3,14,4.1z"/>
	<path class="st1" d="M0.1,0c0,0,5.2,2.4,11.8,2.6c0.4-0.2,1-0.8,2.1-0.4c1.4,0.4,1.5,1.9,1.7,2.6c0.1,0.3,0.5,1.5,1.4,2.2
		c1.1,0.7,2.2,1.3,5.1,0.9c2.7-0.4,6-1.6,8.6-3c2.7-1.3,4.7-2.8,5.4-3.2l0.5,0.6c-0.9,0.6-1.8,1.1-2.7,1.7l0.1,0.2
		c0.6-0.3,2-1.2,2.7-1.7l0.3,0.4c-0.7,0.5-2.1,1.3-2.8,1.7l0.1,0.2c0.6-0.4,2.1-1.2,2.8-1.7l0.3,0.4c-0.8,0.5-2.2,1.3-2.9,1.7
		l0.1,0.2c0.6-0.3,2.1-1.2,2.9-1.7L38.1,4c-1.1,0.6-2.5,1.4-3.1,1.7l0.1,0.2c0.5-0.2,2.6-1.3,3.1-1.6l0.4,0.5
		c-2.6,1.6-6.1,2.9-9.2,3.8c-3.1,0.8-5.9,1.2-7.2,1.3c-1.9,0.1-3.9-0.3-5-0.8c-1.1-0.5-2.1-1.4-2.7-2.5c-0.8-1.3-1.5-1.6-1.9-1.7
		c-0.5-0.2-1.5-0.5-1.5-0.5c0,0-2.2-0.6-4.6-1.3C4.4,2.2,2,1.3,1.3,0.9C0.6,0.6,0.2,0.4,0,0.2C0,0.1,0.1,0,0.1,0z M34,6
		c0.1-0.1,0.2-0.2-0.1-0.8c-0.3-0.5-0.5-0.3-0.5-0.3c-0.2,0.1-0.1,0.2,0.1,0.6C33.7,6.1,33.8,6.1,34,6z M33.2,6.3
		c0.1-0.1,0.2-0.2-0.1-0.7c-0.3-0.5-0.4-0.3-0.4-0.3c-0.1,0.1-0.1,0.2,0.1,0.6C32.9,6.3,33,6.3,33.2,6.3z M32.4,6.5
		c0.1-0.1,0.2-0.2-0.1-0.7c-0.3-0.5-0.4-0.3-0.4-0.3c-0.1,0.1-0.1,0.2,0.1,0.5C32.2,6.6,32.3,6.6,32.4,6.5z M31.6,6.8
		c0.1-0.1,0.1-0.2-0.1-0.6C31.3,5.8,31.1,6,31.1,6C31,6,31,6.2,31.2,6.5C31.4,6.9,31.5,6.9,31.6,6.8z M22.3,9.1
		c1.1-0.1,3.2-0.5,5.1-1c1.9-0.5,3.5-1,3.5-1l-0.4-0.9c-3.6,1.5-7.3,2.2-8.3,2.3c-6.6,0.5-7.4-3.7-7.4-3.7c0,0-0.2,0.1-0.3,0.3
		C16,9.3,20.6,9.2,22.3,9.1z M14.3,4.5c0.4-0.4,0.4-1,0-1.4C14,2.7,13.4,2.7,13,3c-0.4,0.4-0.4,1-0.1,1.4
		C13.3,4.8,13.9,4.9,14.3,4.5z M11.6,3.7c0,0-0.1-0.1,0.1-0.4c-0.2,0-3.1-0.4-3.5-0.5C8.4,3.1,11.6,3.7,11.6,3.7z"/>
	<path class="st1" d="M23.7,2.9c-0.5,0.1-1,0.2-1.5,0.3l0,0.3c0.5-0.1,1-0.2,1.6-0.3l0.1,0.5c-0.5,0.1-1,0.2-1.6,0.3l0.1,0.3
		c0.5-0.1,1.1-0.2,1.6-0.3L24,4.7C23.5,4.8,23,4.9,22.4,5l0,0.3C23,5.2,23.5,5.1,24.1,5l0.1,0.5c-0.5,0.1-1.1,0.2-1.6,0.3l0,0.3
		c0.5-0.1,1.1-0.2,1.6-0.3l0.1,0.6c-0.6,0.1-1.1,0.2-1.7,0.3l0,0.3c0.6-0.1,1.1-0.2,1.7-0.3L24.5,7c0,0-1.6,0.4-2.4,0.5
		c0-0.1-0.7-4.6-0.7-4.6c0.2-0.7,0.4-1.4,0.7-2.1l0.5-0.1c-0.2,0.7-0.4,1.4-0.6,2.1l0.3-0.1c0.2-0.7,0.4-1.4,0.6-2.1l0.5-0.1
		c-0.2,0.7-0.4,1.4-0.6,2.1l0.3-0.1c0.2-0.7,0.4-1.4,0.6-2.1l0.6-0.1c-0.2,0.7-0.4,1.4-0.6,2.1L23.7,2.9z"/>
	<path class="st1" d="M21.7,7.5c-0.3,0.1-0.5,0.1-0.5,0.1c-0.2-1.5-0.5-3.1-0.7-4.6c0.2-0.7,0.5-1.4,0.7-2.1l0.6-0.1
		c-0.2,0.7-0.4,1.4-0.7,2.1C21.2,4.5,21.4,6,21.7,7.5z"/>
	<path class="st1" d="M22.1,10.1c1.6-0.1,3-0.4,3.4-0.4l-0.2,0.5c-0.8,0.1-1.7,0.2-2.5,0.3l0,0.2c0.8-0.1,1.6-0.2,2.4-0.3l-0.2,0.5
		c-0.7,0.1-1.4,0.2-2.2,0.3l0,0.3c0.7-0.1,1.4-0.2,2-0.3l-0.3,0.5c-0.6,0.1-1.2,0.2-1.7,0.2l0,0.3c0.5-0.1,1.1-0.1,1.6-0.2l-0.2,0.5
		c-0.5,0.1-0.9,0.1-1.4,0.2l0,0.3c0.4-0.1,0.8-0.1,1.2-0.2l0.4,0.5l-0.3,0.2l-0.2-0.3l-0.3,0l0.3,0.4L23.6,14l-0.4-0.6l-0.3,0
		l0.5,0.7L23,14.4c-0.2-0.3-0.5-0.6-0.7-0.9L22.1,10.1z"/>
	<path class="st1" d="M21,10.1c0.2,0,0.8,0,0.8,0l0.2,3.5c0.3,0.3,0.6,0.7,0.8,1l-0.4,0.3c-0.4-0.4-0.7-0.8-1.1-1.2L21,10.1z"/>
	<path class="st1" d="M19.1,3.4l0.1,0.2c0.2,0,0.5-0.1,0.7-0.1L20,3.8l-0.7,0.1l0.1,0.2C19.6,4,19.8,4,20.1,4l0.1,0.3
		c-0.2,0-0.5,0.1-0.7,0.1l0.1,0.2c0.2,0,0.5-0.1,0.7-0.1l0.1,0.3c0,0-3.9,0.6-4.1,0.5C16,4.8,15.9,4,15.6,3.5c0.3,0,4.1-0.5,4.1-0.5
		l0.1,0.3C19.6,3.3,19.4,3.3,19.1,3.4z M16.4,3.9c-0.2,0.2-0.2,0.6,0,0.9C16.7,5,17,5,17.3,4.7c0.2-0.2,0.2-0.6,0-0.9
		C17,3.7,16.7,3.6,16.4,3.9z M17.7,3.7c0,0.1,0.3,1,0.3,1c0.1,0,0.2,0,0.3-0.1c0,0-0.2-0.6-0.3-1L17.7,3.7z M18.4,3.6
		c0.2,0.5,0.3,0.9,0.3,1c0.2,0,0.3,0,0.3,0c0,0-0.2-0.7-0.4-1C18.5,3.6,18.4,3.6,18.4,3.6z"/>
	<path class="st1" d="M25.8,10L26,9.6c0,0,1.1,0.9,1.5,0.9c0.3,0,0.7,0.2,2.2-1.9c0.1,0,0.2,0,0.3,0.1l-0.6,0.9l0.1,0.1
		c1.8-0.8,3.5-1.7,5.2-2.6c0.1,0.1,0.2,0.3,0.2,0.3c-2.3,1.3-4.6,2.6-7,3.8C27.1,11.2,25.8,10.1,25.8,10z"/>
	<path class="st1" d="M26.8,11.3c0.5,0.3,0.8,0.3,1.2,0.2c1-0.4,2-0.8,3-1.3c0.7-0.5,1.4-0.9,2.1-1.4L33.3,9
		c-0.2,0.2-0.4,0.3-0.6,0.5l0.1,0.1c0.9-0.4,1.9-0.8,2.8-1.2c0.1,0.1,0.1,0.2,0.2,0.3C33.2,9.9,30.7,11,28,12
		c-0.7,0.2-1.1-0.1-1.5-0.4c-0.2-0.1-1-0.7-1-0.7l0.2-0.4C25.7,10.5,26.3,11,26.8,11.3z"/>
	<path class="st1" d="M15.6,3.3c0,0-0.8-1.5-1-1.8c0.4,0,0.4,0,0.4,0l0.6,1.2l0.2,0l-0.6-1.3l0.4,0c0.2,0.4,0.4,0.8,0.5,1.2l0.2,0
		c-0.2-0.4-0.4-0.9-0.6-1.3l0.4,0l0.6,1.3l0.2,0l-0.5-1.3l0.4,0c0.2,0.6,0.5,1.2,0.7,1.8C16.9,3.1,16.2,3.2,15.6,3.3z"/>
</g>
</svg>
